<svg xmlns="http://www.w3.org/2000/svg" width="474.667" height="145.333" viewBox="0 0 356 109" xmlns:v="https://vecta.io/nano"><path d="M34.346 10.328c4.85-6.32 12.81-9.95 20.79-8.71-4.81 6.36-12.85 9.8-20.79 8.71m27.04-8.73c7.98-1.2 15.95 2.39 20.76 8.75-7.92 1.05-15.98-2.37-20.76-8.75m20.76.2c7.5 2.66 13.17 9.37 14.39 17.27-7.6 2.45-16.3 1.3-22.46-3.97 4.73-1.62 9.85-2.04 14.68-.55-3.66-3.33-5.93-7.87-6.61-12.75m-62.13 17.25c1.12-7.92 6.89-14.63 14.4-17.25-.76 4.86-3.03 9.4-6.68 12.73 4.85-1.45 9.94-.96 14.72.49-6.1 5.37-14.84 6.53-22.44 4.03m-9.96 16.47c-2.2-7.77.75-16.08 6.27-21.72 1.52 4.72 1.3 9.88-.67 14.43 3.99-3.21 8.89-5 13.97-5.47-3.74 7.19-11.23 12.96-19.57 12.76m89.8-21.68c6.16 5.34 8.72 14.19 6.48 22.02-8.2-.68-15.81-5.66-19.41-13.11 5.03.57 10.05 2.13 13.86 5.61-1.86-4.63-1.9-9.69-.93-14.52m134.38 4.56c4.2-3.32 10.55-2.95 14.89-.06-.42 1.94-1.2 3.79-1.91 5.64-1.65-1.96-3.37-4.84-6.39-4.36-3.17-.1-5.19 4.03-3.05 6.41 3.13 3.06 7.8 4.01 10.72 7.38 3.42 3.52 2.35 9.86-1.63 12.54-4.7 3.22-11.19 3.13-16.15.51.56-2.19 1.05-4.4 1.76-6.54 2.24.97 2.55 4.78 5.52 4.87 3.38 1.09 7.24-2.07 6.06-5.63-2.57-3.74-7.31-4.82-10.6-7.73-3.45-3.5-3.14-9.99.78-13.03m50.99-1.73c9.33-2.95 19.78 4.57 20.25 14.24 1.2 9.32-7.13 18.43-16.58 17.75-9.77-.08-17.4-10.41-15.05-19.8 1.23-5.71 5.71-10.66 11.38-12.19m52.06 1.73c4.3-3.43 10.7-2.85 15.12.05l-2.22 5.49c-1.62-1.95-3.31-4.86-6.32-4.32-3.5-.09-5.29 4.73-2.56 6.91 3.87 3.13 9.77 4.34 11.77 9.4.52 3.13.53 6.9-2.11 9.13-4.53 4.24-11.58 3.92-17 1.73.34-2.33.75-4.66 1.54-6.88 2.24 1.07 2.54 4.7 5.42 4.85 3.39 1.22 7.57-2.09 6.03-5.66-2.48-3.75-7.27-4.77-10.48-7.7-3.45-3.54-3.09-9.94.81-13m-201.82-1.75h5.89l-.03 31.1-5.84-.02-.02-31.08m11.57.02l4.15-.03 18.85 21.24-.06-21.23 4.09.01v31.04l-4.06.05-18.82-21.09-.03 21.09-4.13-.02.01-31.06m30.13-.02l7.56.05c2.55 7.53 5.53 14.9 8.13 22.42l7.88-22.48 4.81.01-12 31.09-4.6-.06-11.78-31.03m31.19-.01l19.07.02-.03 4.15-13.15-.04v8.77l13.02-.02v4.21l-13.02-.01v10.03l13.13-.04.04 4.02c-6.34-.01-12.69-.04-19.03.01l-.03-31.1m44.1 4.17l-.02-4.16 22.32.01.03 4.12-8.19.01.03 26.95c-2.01 0-4.02-.01-6.03-.01l.02-26.95-8.16.03m56.27-4.12c5.66.25 11.61-.89 17.02 1.17 5.04 1.81 6.14 9.01 2.87 12.87-1.36 1.71-3.43 2.55-5.3 3.55l9.11 13.47c-2.46-.03-4.92.11-7.37-.12-3.73-4.19-5.89-9.57-9.88-13.56-.2 4.55-.09 9.11-.09 13.67l-6.36-.07v-30.98" fill="#162c55"/><path d="M286.256 20.498c2.97-1.88 6.96-.69 9.12 1.87 4.97 5.69 4.79 15.2-.55 20.58-2.32 2.37-6.28 3.12-9.02 1.05-7.45-5.31-7.36-18.57.45-23.5m28.84-.46c1.98.18 4.08-.07 5.98.64 3.73 2.27 3.38 8.87-.67 10.61-1.73.47-3.56.41-5.33.55l.02-11.8" fill="#fff"/><path d="M4.276 32.388c3.57 3.78 5.28 8.91 5.34 14.06 2.14-4.95 6.24-8.64 10.91-11.15-.37 8.56-5.57 16.21-12.93 20.38-5.35-6.46-6.47-15.58-3.32-23.29m102.7 13.91c-.17-5.19 1.97-10.05 5.1-14.07 3.42 7.69 2.12 16.85-3.06 23.44-7.43-4.03-12.62-11.75-12.99-20.27 4.72 2.36 8.56 6.19 10.95 10.9m-95.56 18.81c.3-5.28 2.4-10.23 5.63-14.38 3.03 7.99 1.5 17.31-3.93 23.91-7.06-4.19-12.38-11.83-11.74-20.31 4.28 2.58 8.05 6.12 10.04 10.78m91.84 9.46c-5.26-6.64-6.84-15.91-3.72-23.84 3.23 4.15 5.11 9.12 5.74 14.31 1.8-4.87 5.8-8.39 10.24-10.83-.05 8.44-4.83 16.38-12.26 20.36m154.01-12.86c8.42-2.15 17.61 3.81 19.26 12.28 2.3 8.52-3.9 18.21-12.64 19.62-8.33 1.79-17.12-4.22-18.63-12.55-1.99-8.34 3.64-17.49 12.01-19.35m-121.76.09l5.81.01.01 31.11-5.83-.04.01-31.08m11.55.3l4.37.03 18.58 20.95v-20.98l4.06.06-.01 30.82c-1.65-.22-3.8.51-4.97-1.03l-17.92-20.06-.03 21.03-4.09-.03.01-30.79m47.16-.17c4.85.4 9.72-.03 14.57.3 3.4.22 6.83 2.51 7.71 5.92.58 3.15.13 6.84-2.51 8.97-3.73 3.37-9.12 2.73-13.75 2.74-.1 4.42-.07 8.84-.07 13.26l-6 .02.05-31.21m26.82.16h19.55l.02 4.11c-4.53 0-9.06-.01-13.59-.02l-.01 8.66 13.45-.04.04 4.06c-4.48.12-8.96.43-13.43.01a286.15 286.15 0 0 0-.02 10.15c4.5-.13 9.01-.09 13.53-.09l.04 4.2c-6.53-.01-13.07.03-19.6-.01l.02-31.03m86.71.08l6 .02c.51 8.9.08 17.84.21 26.76l13.53-.03.04 4.22c-6.59-.05-13.19.12-19.77-.13l-.01-30.84m23.83-.04l19.73-.03-.03 4.12-13.71-.04.03 8.65 13.46-.01.1 3.98c-4.52.42-9.05.38-13.58.26l.01 9.87h13.6l.03 4.19-19.65.01.01-31m-50.35-.21c5.82.25 11.85-.75 17.51 1.02 6.12 1.99 6.75 11.23 1.71 14.7-3.8 2.83-8.79 2.15-13.23 2.25l-.04 13.25c-2-.01-4-.01-6 0l.05-31.22" fill="#162c55"/><path d="M200.196 65.168c2.37.13 4.81-.09 7.11.61 3.38 1.64 3.35 6.47 1.51 9.28-2.05 2.63-5.79 1.53-8.66 1.88l.04-11.77m57.96.28c3.58-1.9 7.78.44 9.72 3.59 3.93 6.16 3.25 15.64-2.92 20.11-2.38 1.8-5.78 1.67-8.1-.16-7.32-5.57-6.9-19.02 1.3-23.54m29.03-.26c2.88.33 6.55-.69 8.72 1.77 2.01 2.77 1.6 7.47-1.47 9.32-2.3.9-4.86.47-7.27.67l.02-11.76" fill="#fff"/><path d="M90.366 89.338c-2.52-8.21.22-17.19 5.91-23.4a21.97 21.97 0 0 1-.68 15.32c3.93-3.3 8.83-5.13 13.94-5.37-3.41 7.6-10.94 12.65-19.17 13.45m-70.45-23.35c6.28 5.84 8.51 15.17 6.28 23.37-8.19-.88-15.95-5.78-19.17-13.55 5.04.38 9.94 2.12 13.76 5.48-1.92-4.89-1.9-10.22-.87-15.3m9.02 12.25c8.16 3.21 13.95 10.81 15.51 19.36-8.1 3.11-17.56 1.11-23.93-4.71 5.01-1.73 10.45-2.12 15.51-.34-3.91-3.83-6.29-8.93-7.09-14.31m43.15 19.41c1.51-8.6 7.31-16.18 15.48-19.42-.81 5.39-3.12 10.56-7.13 14.33 5.08-1.8 10.55-1.4 15.57.36-6.41 5.76-15.79 7.81-23.92 4.73m-34.3 4.78c8.65.94 15.95-4.82 24.31-5.65 6.62-.38 14.6 3.59 14.95 10.97-3.04-2.37-6.09-5.1-10.04-5.7-8.34-1.83-15.8 4.62-24.13 3.39-2.03-.26-3.52-1.85-5.09-3.01" fill="#162c55"/></svg>