<?xml version="1.0" encoding="UTF-8"?>
<!DOCTYPE svg PUBLIC "-//W3C//DTD SVG 1.1//EN" "http://www.w3.org/Graphics/SVG/1.1/DTD/svg11.dtd">
<svg xmlns="http://www.w3.org/2000/svg" version="1.1" width="600px" height="97px" style="shape-rendering:geometricPrecision; text-rendering:geometricPrecision; image-rendering:optimizeQuality; fill-rule:evenodd; clip-rule:evenodd" xmlns:xlink="http://www.w3.org/1999/xlink">
<g><path style="opacity:1" fill="#fdfefe" d="M -0.5,-0.5 C 199.5,-0.5 399.5,-0.5 599.5,-0.5C 599.5,31.8333 599.5,64.1667 599.5,96.5C 399.5,96.5 199.5,96.5 -0.5,96.5C -0.5,64.1667 -0.5,31.8333 -0.5,-0.5 Z"/></g>
<g><path style="opacity:1" fill="#5385bf" d="M 342.5,23.5 C 342.44,22.9569 342.107,22.6236 341.5,22.5C 340.502,31.8096 340.168,41.1429 340.5,50.5C 337.833,50.5 335.167,50.5 332.5,50.5C 331.339,37.0062 331.173,23.3396 332,9.5C 335.23,7.30884 338.73,6.9755 342.5,8.5C 348.199,17.7032 353.699,27.0365 359,36.5C 359.5,26.5056 359.666,16.5056 359.5,6.5C 362.5,6.5 365.5,6.5 368.5,6.5C 368.5,21.5 368.5,36.5 368.5,51.5C 365.102,51.8204 361.768,51.487 358.5,50.5C 353.107,41.4626 347.774,32.4626 342.5,23.5 Z"/></g>
<g><path style="opacity:1" fill="#1d9f1a" d="M 579.5,8.5 C 580.922,8.74962 581.922,9.58296 582.5,11C 581.233,12.7959 581.233,14.6293 582.5,16.5C 581.675,17.3857 580.675,17.719 579.5,17.5C 579.108,14.3243 579.108,11.3243 579.5,8.5 Z"/></g>
<g><path style="opacity:1" fill="#37a333" d="M 572.5,7.5 C 574.369,9.63528 575.036,12.3019 574.5,15.5C 575.978,15.238 577.311,15.5713 578.5,16.5C 576.604,17.4656 574.604,17.7989 572.5,17.5C 572.5,14.1667 572.5,10.8333 572.5,7.5 Z"/></g>
<g><path style="opacity:1" fill="#29a026" d="M 588.5,7.5 C 590.402,10.3373 591.069,13.6707 590.5,17.5C 584.887,18.921 582.72,16.921 584,11.5C 585.356,10.6198 586.856,10.2865 588.5,10.5C 588.5,9.5 588.5,8.5 588.5,7.5 Z"/></g>
<g><path style="opacity:1" fill="#e5f2e6" d="M 585.5,11.5 C 588.956,12.5362 589.29,14.2029 586.5,16.5C 585.548,14.9547 585.215,13.288 585.5,11.5 Z"/></g>
<g><path style="opacity:1" fill="#5287bc" d="M 535.5,26.5 C 532.813,26.3359 530.146,26.5026 527.5,27C 526.299,27.9025 525.465,29.0692 525,30.5C 524.5,37.4921 524.334,44.4921 524.5,51.5C 521.5,51.5 518.5,51.5 515.5,51.5C 515.334,45.1579 515.5,38.8246 516,32.5C 517.685,21.3212 524.185,16.3212 535.5,17.5C 535.5,20.5 535.5,23.5 535.5,26.5 Z"/></g>
<g><path style="opacity:1" fill="#4b84bb" d="M 544.5,50.5 C 541.833,50.5 539.167,50.5 536.5,50.5C 536.5,42.5 536.5,34.5 536.5,26.5C 537.921,21.9102 540.921,18.7435 545.5,17C 554.568,14.4523 561.068,17.2856 565,25.5C 565.5,34.1603 565.666,42.8269 565.5,51.5C 562.635,51.9452 560.135,51.2785 558,49.5C 557.667,42.1667 557.333,34.8333 557,27.5C 555.512,24.876 553.179,23.5427 550,23.5C 547.849,23.6431 546.182,24.6431 545,26.5C 544.5,34.4931 544.334,42.4931 544.5,50.5 Z"/></g>
<g><path style="opacity:1" fill="#4f86bc" d="M 379.5,16.5 C 394.16,15.1614 401.493,21.8281 401.5,36.5C 393.833,36.5 386.167,36.5 378.5,36.5C 380.721,45.2661 385.387,46.7661 392.5,41C 401.527,39.2266 402.861,41.56 396.5,48C 377.37,55.8923 368.537,49.3923 370,28.5C 371.194,22.8195 374.36,18.8195 379.5,16.5 Z"/></g>
<g><path style="opacity:1" fill="#f5f7fa" d="M 382.5,23.5 C 388.188,22.531 391.188,24.8643 391.5,30.5C 387.167,30.5 382.833,30.5 378.5,30.5C 378.961,27.6967 380.295,25.3634 382.5,23.5 Z"/></g>
<g><path style="opacity:1" fill="#b1c6dc" d="M 535.5,26.5 C 535.833,26.5 536.167,26.5 536.5,26.5C 536.5,34.5 536.5,42.5 536.5,50.5C 539.167,50.5 541.833,50.5 544.5,50.5C 541.713,51.4767 538.713,51.81 535.5,51.5C 535.5,43.1667 535.5,34.8333 535.5,26.5 Z"/></g>
<g><path style="opacity:1" fill="#4f85bb" d="M 493.5,16.5 C 512.516,14.4613 519.35,22.7946 514,41.5C 513.332,45.4987 511.165,48.332 507.5,50C 502.254,51.5059 496.921,51.8392 491.5,51C 485.891,47.7231 484.058,42.8897 486,36.5C 490.682,31.5459 496.516,29.0459 503.5,29C 506.577,25.2094 505.577,23.3761 500.5,23.5C 497.409,24.4058 494.242,25.0724 491,25.5C 489.5,25.1667 488,24.8333 486.5,24.5C 488.169,21.1697 490.502,18.5031 493.5,16.5 Z"/></g>
<g><path style="opacity:1" fill="#f5f7f9" d="M 503.5,34.5 C 504.5,34.5 505.5,34.5 506.5,34.5C 506.443,43.9362 502.276,46.6029 494,42.5C 493.333,41.1667 493.333,39.8333 494,38.5C 497.005,36.4883 500.171,35.155 503.5,34.5 Z"/></g>
<g><path style="opacity:1" fill="#a0bbdb" d="M 342.5,23.5 C 341.506,32.6517 341.173,41.985 341.5,51.5C 338.287,51.81 335.287,51.4767 332.5,50.5C 335.167,50.5 337.833,50.5 340.5,50.5C 340.168,41.1429 340.502,31.8096 341.5,22.5C 342.107,22.6236 342.44,22.9569 342.5,23.5 Z"/></g>
<g><path style="opacity:1" fill="#5086bc" d="M 403.5,17.5 C 406.247,17.1866 408.914,17.52 411.5,18.5C 412.907,25.6007 414.74,32.6007 417,39.5C 418.287,32.44 419.787,25.44 421.5,18.5C 424.768,17.513 428.102,17.1796 431.5,17.5C 432.6,24.834 433.766,32.1673 435,39.5C 436.891,32.5223 438.891,25.5223 441,18.5C 443.719,17.5562 446.552,17.2229 449.5,17.5C 446.996,29.0418 443.996,40.3751 440.5,51.5C 437.5,51.5 434.5,51.5 431.5,51.5C 430.44,43.5954 428.607,35.9287 426,28.5C 423.951,35.7444 422.284,43.0778 421,50.5C 417.943,51.4505 414.777,51.7839 411.5,51.5C 408.835,40.1726 406.168,28.8393 403.5,17.5 Z"/></g>
<g><path style="opacity:1" fill="#4b80bc" d="M 299.5,43.5 C 299.5,45.8333 299.5,48.1667 299.5,50.5C 202.5,50.5 105.5,50.5 8.5,50.5C 8.5,48.1667 8.5,45.8333 8.5,43.5C 105.5,43.5 202.5,43.5 299.5,43.5 Z"/></g>
<g><path style="opacity:1" fill="#4e85bb" d="M 452.5,7.5 C 455.685,7.01964 458.519,7.68631 461,9.5C 461.333,13.1667 461.667,16.8333 462,20.5C 471.978,13.8002 479.312,16.1336 484,27.5C 487.108,45.0514 479.942,52.8847 462.5,51C 457.755,49.8852 454.588,47.0519 453,42.5C 452.5,30.8381 452.333,19.1714 452.5,7.5 Z"/></g>
<g><path style="opacity:1" fill="#fafbfc" d="M 464.5,24.5 C 467.187,24.3359 469.854,24.5026 472.5,25C 473.701,25.9025 474.535,27.0692 475,28.5C 475.667,32.1667 475.667,35.8333 475,39.5C 471.038,45.6306 466.705,45.9639 462,40.5C 461.333,36.1667 461.333,31.8333 462,27.5C 463.045,26.6266 463.878,25.6266 464.5,24.5 Z"/></g>
<g><path style="opacity:1" fill="#a5c6e3" d="M 299.5,43.5 C 300.473,45.9479 300.806,48.6146 300.5,51.5C 202.999,51.8328 105.665,51.4994 8.5,50.5C 105.5,50.5 202.5,50.5 299.5,50.5C 299.5,48.1667 299.5,45.8333 299.5,43.5 Z"/></g>
<g><path style="opacity:1" fill="#38a344" d="M 319.5,60.5 C 222.833,60.5 126.167,60.5 29.5,60.5C 29.5,62.5 29.5,64.5 29.5,66.5C 126.167,66.5 222.833,66.5 319.5,66.5C 222.668,67.4994 125.668,67.8328 28.5,67.5C 28.5,64.8333 28.5,62.1667 28.5,59.5C 125.668,59.1672 222.668,59.5006 319.5,60.5 Z"/></g>
<g><path style="opacity:1" fill="#009d02" d="M 319.5,60.5 C 319.5,62.5 319.5,64.5 319.5,66.5C 222.833,66.5 126.167,66.5 29.5,66.5C 29.5,64.5 29.5,62.5 29.5,60.5C 126.167,60.5 222.833,60.5 319.5,60.5 Z"/></g>
<g><path style="opacity:1" fill="#33a12f" d="M 451.5,62.5 C 452.5,62.5 453.5,62.5 454.5,62.5C 454.778,64.3464 454.111,65.6798 452.5,66.5C 451.571,65.3112 451.238,63.9778 451.5,62.5 Z"/></g>
<g><path style="opacity:1" fill="#8bb6d3" d="M 48.5,76.5 C 145.665,75.5006 242.999,75.1672 340.5,75.5C 340.806,78.3854 340.473,81.0521 339.5,83.5C 339.5,81.1667 339.5,78.8333 339.5,76.5C 242.5,76.5 145.5,76.5 48.5,76.5 Z"/></g>
<g><path style="opacity:1" fill="#4e82be" d="M 48.5,76.5 C 145.5,76.5 242.5,76.5 339.5,76.5C 339.5,78.8333 339.5,81.1667 339.5,83.5C 242.5,83.5 145.5,83.5 48.5,83.5C 48.5,81.1667 48.5,78.8333 48.5,76.5 Z"/></g>
<g><path style="opacity:1" fill="#289f25" d="M 544.5,73.5 C 545.712,72.7701 546.712,71.7701 547.5,70.5C 552.085,68.9811 553.585,70.6478 552,75.5C 548.403,79.6117 548.903,80.2784 553.5,77.5C 555.101,78.0347 555.601,79.0347 555,80.5C 550.853,81.0742 546.686,81.4075 542.5,81.5C 540.502,82.9667 538.836,84.8001 537.5,87C 536.552,87.4828 535.552,87.6495 534.5,87.5C 534.744,84.7374 536.077,82.5707 538.5,81C 534.908,81.5021 531.241,81.5021 527.5,81C 527.101,78.398 527.101,75.898 527.5,73.5C 524.967,75.394 523.3,77.894 522.5,81C 519.547,81.8925 516.881,81.3925 514.5,79.5C 511.111,81.4895 507.444,81.9895 503.5,81C 502.707,78.2425 502.707,75.7425 503.5,73.5C 500.967,75.394 499.3,77.894 498.5,81C 494.558,80.9366 491.558,82.6032 489.5,86C 486.743,87.9535 484.243,87.7868 482,85.5C 480.519,76.6413 483.353,69.4747 490.5,64C 498.922,61.3082 500.589,63.6416 495.5,71C 494.365,71.7494 493.365,71.5827 492.5,70.5C 493.751,69.3689 494.751,68.0356 495.5,66.5C 495.167,65.8333 494.833,65.1667 494.5,64.5C 489.008,68.6437 485.675,74.1437 484.5,81C 484.388,82.6624 485.054,83.8291 486.5,84.5C 489.489,82.1373 492.656,80.1373 496,78.5C 498.091,73.6588 499.591,68.6588 500.5,63.5C 501.978,63.238 503.311,63.5713 504.5,64.5C 502.93,67.0374 502.097,69.704 502,72.5C 503.444,70.8446 505.278,70.178 507.5,70.5C 507.452,73.3128 506.785,75.9795 505.5,78.5C 505.833,78.8333 506.167,79.1667 506.5,79.5C 507.785,76.429 509.451,73.5957 511.5,71C 514.224,70.7305 516.891,70.2305 519.5,69.5C 519.833,69.8333 520.167,70.1667 520.5,70.5C 518.897,73.3436 518.397,76.3436 519,79.5C 521.019,76.624 522.519,73.4573 523.5,70C 523.833,69.8333 524.167,69.6667 524.5,69.5C 525.251,70.376 525.751,71.376 526,72.5C 527.444,70.8446 529.278,70.178 531.5,70.5C 531.722,73.3903 531.055,76.057 529.5,78.5C 530.325,79.3857 531.325,79.719 532.5,79.5C 532.909,72.7629 536.576,69.4296 543.5,69.5C 544.429,70.6888 544.762,72.0222 544.5,73.5 Z"/></g>
<g><path style="opacity:1" fill="#ebf4ec" d="M 544.5,73.5 C 544.5,75.5 544.5,77.5 544.5,79.5C 543.325,79.719 542.325,79.3857 541.5,78.5C 542.696,76.8554 543.696,75.1887 544.5,73.5 Z"/></g>
<g><path style="opacity:1" fill="#f1f8f1" d="M 548.5,72.5 C 551.041,73.6228 551.041,74.9561 548.5,76.5C 547.374,75.1916 547.374,73.8583 548.5,72.5 Z"/></g>
<g><path style="opacity:1" fill="#e8f4e9" d="M 537.5,72.5 C 538.873,72.3433 540.207,72.51 541.5,73C 536.095,81.3763 534.761,81.2096 537.5,72.5 Z"/></g>
<g><path style="opacity:1" fill="#e0efe3" d="M 513.5,72.5 C 514.675,72.281 515.675,72.6143 516.5,73.5C 515.557,76.1092 513.89,78.1092 511.5,79.5C 510.633,76.8565 511.3,74.5232 513.5,72.5 Z"/></g>
<g><path style="opacity:1" fill="#3fa53b" d="M 557.5,77.5 C 560.861,78.2032 561.194,79.5365 558.5,81.5C 557.571,80.3112 557.238,78.9778 557.5,77.5 Z"/></g>
<g><path style="opacity:1" fill="#36a135" d="M 563.5,77.5 C 565.476,78.4271 565.809,79.7605 564.5,81.5C 562.358,80.5629 562.024,79.2296 563.5,77.5 Z"/></g>
<g><path style="opacity:1" fill="#25a021" d="M 459.5,73.5 C 457.926,75.643 456.592,77.9763 455.5,80.5C 454.333,80.8333 453.167,81.1667 452,81.5C 445.319,80.5141 438.653,80.5141 432,81.5C 429.698,81.3996 427.698,80.733 426,79.5C 424.178,81.0454 422.011,81.712 419.5,81.5C 417.571,81.4604 415.738,81.1271 414,80.5C 413.871,77.6963 414.204,75.0297 415,72.5C 412.793,75.0779 410.96,77.9113 409.5,81C 407.833,81.3333 406.167,81.6667 404.5,82C 402.02,85.5764 398.687,86.9097 394.5,86C 393.426,85.2613 392.759,84.2613 392.5,83C 393.455,79.5872 395.289,76.7539 398,74.5C 397.977,66.6916 401.81,62.6916 409.5,62.5C 409.5,63.5 409.5,64.5 409.5,65.5C 404.205,64.9633 401.705,67.2967 402,72.5C 403.011,71.6634 404.178,71.33 405.5,71.5C 405.5,72.5 405.5,73.5 405.5,74.5C 400.703,74.9543 397.703,77.621 396.5,82.5C 396.808,83.3081 397.308,83.9747 398,84.5C 400.625,81.8849 403.625,79.8849 407,78.5C 408.041,75.1714 409.541,72.1714 411.5,69.5C 412.251,70.376 412.751,71.376 413,72.5C 414.684,70.2993 416.684,69.6327 419,70.5C 418.377,73.4368 418.043,76.4368 418,79.5C 420.074,71.3049 425.074,68.3049 433,70.5C 434,68.1667 435,65.8333 436,63.5C 437.011,62.6634 438.178,62.33 439.5,62.5C 439.838,65.1569 439.171,67.4902 437.5,69.5C 439.435,70.0678 440.768,71.2345 441.5,73C 440.983,75.077 440.316,77.077 439.5,79C 440.449,79.6172 441.282,79.4506 442,78.5C 442.746,74.1036 443.746,69.7703 445,65.5C 446,64.5 447,63.5 448,62.5C 448.87,63.1079 449.37,63.9412 449.5,65C 446.278,69.3334 445.111,74.1668 446,79.5C 447.541,75.9465 449.375,72.6131 451.5,69.5C 452.395,72.3749 452.062,75.2083 450.5,78C 451.01,79.8261 451.844,79.9928 453,78.5C 454.302,75.6249 455.135,72.6249 455.5,69.5C 456.5,69.5 457.5,69.5 458.5,69.5C 458.232,71.099 458.566,72.4324 459.5,73.5 Z"/></g>
<g><path style="opacity:1" fill="#e7f4e7" d="M 431.5,71.5 C 432.097,71.7352 432.43,72.2352 432.5,73C 432.022,75.2256 431.355,77.3923 430.5,79.5C 430.167,78.8333 429.833,78.1667 429.5,77.5C 430.178,75.484 430.844,73.484 431.5,71.5 Z"/></g>
<g><path style="opacity:1" fill="#dff0df" d="M 435.5,73.5 C 436.5,73.5 437.5,73.5 438.5,73.5C 438.813,77.0192 437.48,78.3526 434.5,77.5C 435.246,76.2638 435.579,74.9305 435.5,73.5 Z"/></g>
<g><path style="opacity:1" fill="#eff7ef" d="M 425.5,72.5 C 426.376,72.3691 427.043,72.7025 427.5,73.5C 426.876,75.754 425.543,77.4206 423.5,78.5C 423.167,78 422.833,77.5 422.5,77C 423.315,75.3566 424.315,73.8566 425.5,72.5 Z"/></g>
<g><path style="opacity:1" fill="#249e21" d="M 459.5,73.5 C 460.048,70.9162 461.715,69.9162 464.5,70.5C 464.604,73.0895 463.937,75.4229 462.5,77.5C 462.833,78.1667 463.167,78.8333 463.5,79.5C 464.531,76.3 466.198,73.4667 468.5,71C 477.816,67.4693 479.816,69.9693 474.5,78.5C 475.167,79.1667 475.833,79.8333 476.5,80.5C 473.485,81.6751 471.485,83.8418 470.5,87C 469.552,87.4828 468.552,87.6495 467.5,87.5C 468.359,84.5704 469.526,81.9038 471,79.5C 467.817,81.5234 464.317,82.0234 460.5,81C 459.271,78.381 459.604,75.881 461.5,73.5C 461.03,72.537 460.363,72.537 459.5,73.5 Z"/></g>
<g><path style="opacity:1" fill="#e5f2e5" d="M 470.5,72.5 C 471.675,72.281 472.675,72.6143 473.5,73.5C 472.557,76.1092 470.89,78.1092 468.5,79.5C 467.633,76.8565 468.3,74.5232 470.5,72.5 Z"/></g>
</svg>
